<svg id="icon-ft-on-dp_svg__Layer_1" data-name="Layer 1" xmlns="http://www.w3.org/2000/svg" viewBox="0 0 350 350" role="img"><defs><style>.icon-ft-on-dp_svg__cls-2{fill:#42cacd}</style></defs><path id="icon-ft-on-dp_svg__Path_176" data-name="Path 176" d="M175 350A175 175 0 1 0 0 175a175 175 0 0 0 175 175" style="fill: rgb(32, 1, 75); --darkreader-inline-fill: #d0ccc6;" data-darkreader-inline-fill=""></path><g id="icon-ft-on-dp_svg__Group_20" data-name="Group 20"><path id="icon-ft-on-dp_svg__Path_177" data-name="Path 177" class="icon-ft-on-dp_svg__cls-2" d="M231 235H115v-11h115.94a5.85 5.85 0 0 1 5.64 5.64 5.62 5.62 0 0 1-5.64 5.36"></path><path id="icon-ft-on-dp_svg__Path_178" data-name="Path 178" class="icon-ft-on-dp_svg__cls-2" d="M220 257H115v-11h104.89a5.62 5.62 0 0 1 5.37 5.64 5.38 5.38 0 0 1-5.37 5.36"></path><path id="icon-ft-on-dp_svg__Path_179" data-name="Path 179" class="icon-ft-on-dp_svg__cls-2" d="M231.07 93a5.39 5.39 0 0 1 5.37 5.37 5.62 5.62 0 0 1-5.37 5.63H126V93Z"></path><path id="icon-ft-on-dp_svg__Path_180" data-name="Path 180" class="icon-ft-on-dp_svg__cls-2" d="M231.08 115a5.38 5.38 0 0 1 5.37 5.36 5.63 5.63 0 0 1-5.37 5.64H115v-11Z"></path><path id="icon-ft-on-dp_svg__Path_181" data-name="Path 181" class="icon-ft-on-dp_svg__cls-2" d="M153.29 137a5.86 5.86 0 0 1 5.64 5.64 5.62 5.62 0 0 1-5.64 5.36H104v-11Z"></path><path id="icon-ft-on-dp_svg__Path_182" data-name="Path 182" class="icon-ft-on-dp_svg__cls-2" d="M240.69 202a5.85 5.85 0 0 1 5.64 5.63 5.63 5.63 0 0 1-5.64 5.37H191v-11Z"></path><path id="icon-ft-on-dp_svg__Path_183" data-name="Path 183" class="icon-ft-on-dp_svg__cls-2" d="M219.9 159a5.38 5.38 0 0 1 5.36 5.36 5.6 5.6 0 0 1-5.36 5.64H115v-11Z"></path><path id="icon-ft-on-dp_svg__Path_184" data-name="Path 184" class="icon-ft-on-dp_svg__cls-2" d="M231 191H126v-11h105.15a5.61 5.61 0 0 1 5.36 5.64 5.38 5.38 0 0 1-5.36 5.36"></path></g></svg>
