<svg width="40" height="40" viewBox="0 0 40 40" fill="none" xmlns="http://www.w3.org/2000/svg">
<g clip-path="url(#clip0_3994_25293)">
<path fill-rule="evenodd" clip-rule="evenodd" d="M6.87866 9.23909C4.06832 12.3518 2.35912 16.468 2.35912 20.9836C2.35912 25.4991 4.06832 29.6153 6.87866 32.728L5.80053 33.6937C2.76013 30.3261 0.90918 25.8693 0.90918 20.9836C0.90918 16.0978 2.76013 11.641 5.80053 8.27344L6.87866 9.23909ZM37.6411 20.9836C37.6411 16.468 35.9319 12.3518 33.1215 9.23909L34.1996 8.27344C37.24 11.641 39.091 16.0978 39.091 20.9836C39.091 25.8693 37.24 30.3261 34.1996 33.6937L33.1215 32.728C35.9319 29.6153 37.6411 25.4991 37.6411 20.9836Z" fill="#AB0000"/>
<path fill-rule="evenodd" clip-rule="evenodd" d="M20.0004 0L34.2582 5.07178V40H5.74268V5.07178L20.0004 0ZM7.19262 6.08952V38.5558H32.8083V6.08952L20.0004 1.53351L7.19262 6.08952Z" fill="#AB0000"/>
<path fill-rule="evenodd" clip-rule="evenodd" d="M10.9624 16.4121H14.3655C15.6265 16.4121 16.714 17.2946 16.9689 18.5247L17.2796 20.0244L18.1803 24.5957H21.8204L22.7212 20.0244L23.0319 18.5247C23.2867 17.2946 24.3742 16.4121 25.6353 16.4121H29.0383V18.2414C29.0383 19.7036 27.8482 20.889 26.3801 20.889H24.0284L23.0663 25.7719L20.7253 27.1708V28.7162L26.3092 31.4073L25.6777 32.7073L20.0004 29.9711L14.323 32.7073L13.6915 31.4073L19.2754 28.7162V27.1708L16.9345 25.7719L15.9723 20.889H13.6206C12.1525 20.889 10.9624 19.7036 10.9624 18.2414V16.4121ZM15.679 19.4449H13.6206C12.9533 19.4449 12.4123 18.906 12.4123 18.2414V17.8563H14.3655C14.9387 17.8563 15.433 18.2574 15.5488 18.8165L15.679 19.4449ZM24.3217 19.4449H26.3801C27.0474 19.4449 27.5884 18.906 27.5884 18.2414V17.8563H25.6353C25.0621 17.8563 24.5678 18.2574 24.4519 18.8165L24.3217 19.4449Z" fill="#AB0000"/>
<path fill-rule="evenodd" clip-rule="evenodd" d="M6.46777 6.30273H33.5334V7.7469H6.46777V6.30273Z" fill="#AB0000"/>
<path fill-rule="evenodd" clip-rule="evenodd" d="M6.46777 34.7051H33.5334V36.1492H6.46777V34.7051Z" fill="#AB0000"/>
<path fill-rule="evenodd" clip-rule="evenodd" d="M10.2856 11.3559V7.02344H11.7356V11.3559H10.2856Z" fill="#AB0000"/>
<path fill-rule="evenodd" clip-rule="evenodd" d="M14.8291 11.3559V7.02344H16.279V11.3559H14.8291Z" fill="#AB0000"/>
<path fill-rule="evenodd" clip-rule="evenodd" d="M19.3721 11.3559V7.02344H20.822V11.3559H19.3721Z" fill="#AB0000"/>
<path fill-rule="evenodd" clip-rule="evenodd" d="M10.2243 10.6367H29.7756L34.2577 17.6965V23.2594L24.0241 36.1504H15.9758L5.74219 23.2594V17.6965L10.2243 10.6367ZM11.023 12.0809L7.19213 18.1149V22.7574L16.6778 34.7062H23.3222L32.8078 22.7574V18.1149L28.9769 12.0809H11.023Z" fill="#AB0000"/>
<path fill-rule="evenodd" clip-rule="evenodd" d="M23.915 11.3559V7.02344H25.365V11.3559H23.915Z" fill="#AB0000"/>
<path fill-rule="evenodd" clip-rule="evenodd" d="M28.3613 11.3559V7.02344H29.8113V11.3559H28.3613Z" fill="#AB0000"/>
<path fill-rule="evenodd" clip-rule="evenodd" d="M9.60938 35.4249V27.7227H11.0593V35.4249H9.60938Z" fill="#AB0000"/>
<path fill-rule="evenodd" clip-rule="evenodd" d="M28.9414 35.4249V27.7227H30.3913V35.4249H28.9414Z" fill="#AB0000"/>
</g>
<defs>
<clipPath id="clip0_3994_25293">
<rect width="40" height="40" fill="white"/>
</clipPath>
</defs>
</svg>
